<svg xmlns="http://www.w3.org/2000/svg" width="1200" height="900" viewBox="0 0 1200 900" fill="none">
  <rect width="1200" height="900" rx="32" fill="#F6F2E8"/>
  <rect x="70" y="90" width="1060" height="720" rx="28" fill="#FFFCF5" stroke="#D8CFBD" stroke-width="4"/>
  <text x="110" y="165" fill="#0F6C5C" font-family="Segoe UI, Noto Sans KR, sans-serif" font-size="42" font-weight="700">API Checkout and Order Flow</text>
  <text x="110" y="215" fill="#6A6B63" font-family="Segoe UI, Noto Sans KR, sans-serif" font-size="24">GraphQL 기반 주문 생성 자동화</text>

  <g font-family="Segoe UI, Noto Sans KR, sans-serif" font-size="24" font-weight="600">
    <rect x="110" y="290" width="200" height="86" rx="18" fill="#D9EFE9"/>
    <text x="145" y="342" fill="#0F6C5C">Register</text>

    <rect x="360" y="290" width="200" height="86" rx="18" fill="#E8F1FB"/>
    <text x="397" y="342" fill="#245B96">Add to Cart</text>

    <rect x="610" y="290" width="220" height="86" rx="18" fill="#F8E7DF"/>
    <text x="639" y="342" fill="#B55D3D">Save Address</text>

    <rect x="880" y="290" width="170" height="86" rx="18" fill="#EFEADF"/>
    <text x="910" y="342" fill="#6A5A2E">Shipping</text>

    <rect x="240" y="470" width="220" height="86" rx="18" fill="#EFEADF"/>
    <text x="282" y="522" fill="#6A5A2E">Payment</text>

    <rect x="500" y="470" width="200" height="86" rx="18" fill="#D9EFE9"/>
    <text x="543" y="522" fill="#0F6C5C">Place Order</text>

    <rect x="740" y="470" width="240" height="86" rx="18" fill="#E8F1FB"/>
    <text x="774" y="522" fill="#245B96">customerOrders</text>
  </g>

  <g stroke="#8E9A8C" stroke-width="6" stroke-linecap="round">
    <path d="M310 333H360"/>
    <path d="M560 333H610"/>
    <path d="M830 333H880"/>
    <path d="M965 376V425H350V470"/>
    <path d="M460 513H500"/>
    <path d="M700 513H740"/>
  </g>

  <text x="110" y="670" fill="#1E1F1C" font-family="Segoe UI, Noto Sans KR, sans-serif" font-size="28" font-weight="700">Validated Result</text>
  <text x="110" y="718" fill="#6A6B63" font-family="Segoe UI, Noto Sans KR, sans-serif" font-size="24">로그인 고객 기준으로 주소 저장, 배송/결제 방식 선택, 주문 생성, 주문 목록 조회까지 자동 검증</text>
  <text x="110" y="765" fill="#6A6B63" font-family="Segoe UI, Noto Sans KR, sans-serif" font-size="24">API suite: 8 passed</text>
</svg>
